<svg width="418" height="87" viewBox="0 0 418 87" fill="none" xmlns="http://www.w3.org/2000/svg">
<path d="M114.16 45L107.152 32.28H105.184V45H96.976V11.304H110.752C113.408 11.304 115.664 11.768 117.52 12.696C119.408 13.624 120.816 14.904 121.744 16.536C122.672 18.136 123.136 19.928 123.136 21.912C123.136 24.152 122.496 26.152 121.216 27.912C119.968 29.672 118.112 30.92 115.648 31.656L123.424 45H114.16ZM105.184 26.472H110.272C111.776 26.472 112.896 26.104 113.632 25.368C114.4 24.632 114.784 23.592 114.784 22.248C114.784 20.968 114.4 19.96 113.632 19.224C112.896 18.488 111.776 18.12 110.272 18.12H105.184V26.472ZM144.225 45.336C141.057 45.336 138.145 44.6 135.489 43.128C132.865 41.656 130.769 39.608 129.201 36.984C127.664 34.328 126.896 31.352 126.896 28.056C126.896 24.76 127.664 21.8 129.201 19.176C130.769 16.552 132.865 14.504 135.489 13.032C138.145 11.56 141.057 10.824 144.225 10.824C147.393 10.824 150.289 11.56 152.913 13.032C155.569 14.504 157.649 16.552 159.153 19.176C160.689 21.8 161.457 24.76 161.457 28.056C161.457 31.352 160.689 34.328 159.153 36.984C157.617 39.608 155.537 41.656 152.913 43.128C150.289 44.6 147.393 45.336 144.225 45.336ZM144.225 37.848C146.913 37.848 149.057 36.952 150.656 35.16C152.289 33.368 153.105 31 153.105 28.056C153.105 25.08 152.289 22.712 150.656 20.952C149.057 19.16 146.913 18.264 144.225 18.264C141.505 18.264 139.329 19.144 137.697 20.904C136.097 22.664 135.297 25.048 135.297 28.056C135.297 31.032 136.097 33.416 137.697 35.208C139.329 36.968 141.505 37.848 144.225 37.848ZM174.087 11.304V31.464C174.087 33.48 174.583 35.032 175.575 36.12C176.567 37.208 178.023 37.752 179.943 37.752C181.863 37.752 183.335 37.208 184.359 36.12C185.383 35.032 185.895 33.48 185.895 31.464V11.304H194.103V31.416C194.103 34.424 193.463 36.968 192.183 39.048C190.903 41.128 189.175 42.696 186.999 43.752C184.855 44.808 182.455 45.336 179.799 45.336C177.143 45.336 174.759 44.824 172.647 43.8C170.567 42.744 168.919 41.176 167.703 39.096C166.487 36.984 165.879 34.424 165.879 31.416V11.304H174.087ZM230.011 45H221.803L208.075 24.216V45H199.867V11.304H208.075L221.803 32.184V11.304H230.011V45ZM248.584 11.304C252.136 11.304 255.24 12.008 257.896 13.416C260.552 14.824 262.6 16.808 264.04 19.368C265.512 21.896 266.248 24.824 266.248 28.152C266.248 31.448 265.512 34.376 264.04 36.936C262.6 39.496 260.536 41.48 257.848 42.888C255.192 44.296 252.104 45 248.584 45H235.96V11.304H248.584ZM248.056 37.896C251.16 37.896 253.576 37.048 255.304 35.352C257.032 33.656 257.896 31.256 257.896 28.152C257.896 25.048 257.032 22.632 255.304 20.904C253.576 19.176 251.16 18.312 248.056 18.312H244.168V37.896H248.056ZM298.191 45L291.183 32.28H289.215V45H281.007V11.304H294.783C297.439 11.304 299.695 11.768 301.551 12.696C303.439 13.624 304.847 14.904 305.775 16.536C306.703 18.136 307.167 19.928 307.167 21.912C307.167 24.152 306.527 26.152 305.247 27.912C303.999 29.672 302.143 30.92 299.679 31.656L307.455 45H298.191ZM289.215 26.472H294.303C295.807 26.472 296.927 26.104 297.663 25.368C298.431 24.632 298.815 23.592 298.815 22.248C298.815 20.968 298.431 19.96 297.663 19.224C296.927 18.488 295.807 18.12 294.303 18.12H289.215V26.472ZM328.256 45.336C325.088 45.336 322.176 44.6 319.52 43.128C316.896 41.656 314.8 39.608 313.232 36.984C311.696 34.328 310.928 31.352 310.928 28.056C310.928 24.76 311.696 21.8 313.232 19.176C314.8 16.552 316.896 14.504 319.52 13.032C322.176 11.56 325.088 10.824 328.256 10.824C331.424 10.824 334.32 11.56 336.944 13.032C339.6 14.504 341.68 16.552 343.184 19.176C344.72 21.8 345.488 24.76 345.488 28.056C345.488 31.352 344.72 34.328 343.184 36.984C341.648 39.608 339.568 41.656 336.944 43.128C334.32 44.6 331.424 45.336 328.256 45.336ZM328.256 37.848C330.944 37.848 333.088 36.952 334.688 35.16C336.32 33.368 337.136 31 337.136 28.056C337.136 25.08 336.32 22.712 334.688 20.952C333.088 19.16 330.944 18.264 328.256 18.264C325.536 18.264 323.36 19.144 321.728 20.904C320.128 22.664 319.328 25.048 319.328 28.056C319.328 31.032 320.128 33.416 321.728 35.208C323.36 36.968 325.536 37.848 328.256 37.848ZM348.662 28.104C348.662 24.776 349.382 21.816 350.822 19.224C352.262 16.6 354.262 14.568 356.822 13.128C359.414 11.656 362.342 10.92 365.606 10.92C369.606 10.92 373.03 11.976 375.878 14.088C378.726 16.2 380.63 19.08 381.59 22.728H372.566C371.894 21.32 370.934 20.248 369.686 19.512C368.47 18.776 367.078 18.408 365.51 18.408C362.982 18.408 360.934 19.288 359.366 21.048C357.798 22.808 357.014 25.16 357.014 28.104C357.014 31.048 357.798 33.4 359.366 35.16C360.934 36.92 362.982 37.8 365.51 37.8C367.078 37.8 368.47 37.432 369.686 36.696C370.934 35.96 371.894 34.888 372.566 33.48H381.59C380.63 37.128 378.726 40.008 375.878 42.12C373.03 44.2 369.606 45.24 365.606 45.24C362.342 45.24 359.414 44.52 356.822 43.08C354.262 41.608 352.262 39.576 350.822 36.984C349.382 34.392 348.662 31.432 348.662 28.104ZM406.153 45L394.825 30.12V45H386.617V11.304H394.825V26.088L406.057 11.304H415.705L402.649 27.816L416.185 45H406.153ZM113.104 62.768C113.104 64.0693 112.805 65.264 112.208 66.352C111.611 67.4187 110.693 68.2827 109.456 68.944C108.219 69.6053 106.683 69.936 104.848 69.936H101.456V78H95.984V55.536H104.848C106.64 55.536 108.155 55.8453 109.392 56.464C110.629 57.0827 111.557 57.936 112.176 59.024C112.795 60.112 113.104 61.36 113.104 62.768ZM104.432 65.584C105.477 65.584 106.256 65.3387 106.768 64.848C107.28 64.3573 107.536 63.664 107.536 62.768C107.536 61.872 107.28 61.1787 106.768 60.688C106.256 60.1973 105.477 59.952 104.432 59.952H101.456V65.584H104.432ZM143.825 73.776H150.993V78H138.353V55.536H143.825V73.776ZM181.379 55.536V68.976C181.379 70.32 181.709 71.3547 182.371 72.08C183.032 72.8053 184.003 73.168 185.283 73.168C186.563 73.168 187.544 72.8053 188.227 72.08C188.909 71.3547 189.251 70.32 189.251 68.976V55.536H194.723V68.944C194.723 70.9493 194.296 72.6453 193.443 74.032C192.589 75.4187 191.437 76.464 189.987 77.168C188.557 77.872 186.957 78.224 185.187 78.224C183.416 78.224 181.827 77.8827 180.419 77.2C179.032 76.496 177.933 75.4507 177.123 74.064C176.312 72.656 175.907 70.9493 175.907 68.944V55.536H181.379ZM246.405 55.536V78H240.933V64.528L235.909 78H231.493L226.437 64.496V78H220.965V55.536H227.429L233.733 71.088L239.973 55.536H246.405ZM286.34 66.48C287.642 66.7573 288.687 67.408 289.476 68.432C290.266 69.4347 290.66 70.5867 290.66 71.888C290.66 73.7653 289.999 75.2587 288.676 76.368C287.375 77.456 285.551 78 283.204 78H272.74V55.536H282.852C285.135 55.536 286.916 56.0587 288.196 57.104C289.498 58.1493 290.148 59.568 290.148 61.36C290.148 62.6827 289.796 63.7813 289.092 64.656C288.41 65.5307 287.492 66.1387 286.34 66.48ZM278.212 64.624H281.796C282.692 64.624 283.375 64.432 283.844 64.048C284.335 63.6427 284.58 63.056 284.58 62.288C284.58 61.52 284.335 60.9333 283.844 60.528C283.375 60.1227 282.692 59.92 281.796 59.92H278.212V64.624ZM282.244 73.584C283.162 73.584 283.866 73.3813 284.356 72.976C284.868 72.5493 285.124 71.9413 285.124 71.152C285.124 70.3627 284.858 69.744 284.324 69.296C283.812 68.848 283.098 68.624 282.18 68.624H278.212V73.584H282.244ZM321.706 55.536V78H316.234V55.536H321.706ZM368.167 78H362.695L353.543 64.144V78H348.071V55.536H353.543L362.695 69.456V55.536H368.167V78ZM409.446 62.64C409.041 61.8933 408.454 61.328 407.686 60.944C406.939 60.5387 406.054 60.336 405.03 60.336C403.259 60.336 401.841 60.9227 400.774 62.096C399.707 63.248 399.174 64.7947 399.174 66.736C399.174 68.8053 399.729 70.4267 400.838 71.6C401.969 72.752 403.515 73.328 405.478 73.328C406.822 73.328 407.953 72.9867 408.87 72.304C409.809 71.6213 410.491 70.64 410.918 69.36H403.974V65.328H415.878V70.416C415.473 71.7813 414.779 73.0507 413.798 74.224C412.838 75.3973 411.611 76.3467 410.118 77.072C408.625 77.7973 406.939 78.16 405.062 78.16C402.843 78.16 400.859 77.68 399.11 76.72C397.382 75.7387 396.027 74.384 395.046 72.656C394.086 70.928 393.606 68.9547 393.606 66.736C393.606 64.5173 394.086 62.544 395.046 60.816C396.027 59.0667 397.382 57.712 399.11 56.752C400.838 55.7707 402.811 55.28 405.03 55.28C407.718 55.28 409.979 55.9307 411.814 57.232C413.67 58.5333 414.897 60.336 415.494 62.64H409.446Z" fill="white"/>
<path d="M3.05562 15.3179H6.0651V18.3229C6.06597 19.1323 6.38836 19.9082 6.96152 20.4805C7.53468 21.0528 8.3118 21.3747 9.12237 21.3756H12.2835C13.094 21.3747 13.8712 21.0528 14.4443 20.4805C15.0175 19.9082 15.3399 19.1323 15.3408 18.3229V15.3179H18.3502C19.1607 15.3166 19.9375 14.9945 20.5106 14.4223C21.0837 13.8501 21.4062 13.0744 21.4075 12.2652V9.10878C21.4062 8.29955 21.0837 7.52384 20.5106 6.95163C19.9375 6.37942 19.1607 6.05737 18.3502 6.05607H15.3408V3.05272C15.3399 2.24335 15.0175 1.46739 14.4443 0.895083C13.8712 0.322776 13.094 0.000871221 12.2835 0L9.12237 0C8.3118 0.000871221 7.53468 0.322776 6.96152 0.895083C6.38836 1.46739 6.06597 2.24335 6.0651 3.05272V6.05607H3.05562C2.24534 6.05737 1.46864 6.37947 0.895835 6.95173C0.32303 7.52399 0.000871627 8.29971 0 9.10878V12.2652C0.000871627 13.0743 0.32303 13.85 0.895835 14.4222C1.46864 14.9945 2.24534 15.3166 3.05562 15.3179ZM2.33539 9.10878C2.33627 8.91862 2.41253 8.73655 2.54751 8.60239C2.68248 8.46823 2.86518 8.39292 3.05562 8.39292H8.40544V3.05272C8.40544 2.86183 8.48127 2.67874 8.61629 2.54361C8.75131 2.40848 8.9345 2.33235 9.12567 2.33191H12.2835C12.4746 2.33235 12.6578 2.40848 12.7929 2.54361C12.9279 2.67874 13.0037 2.86183 13.0037 3.05272V8.39292H18.3502C18.4448 8.39292 18.5385 8.41152 18.6258 8.44766C18.7132 8.4838 18.7926 8.53677 18.8595 8.60355C18.9264 8.67033 18.9794 8.74961 19.0156 8.83687C19.0518 8.92412 19.0705 9.01763 19.0705 9.11208V12.2652C19.0705 12.4561 18.9946 12.6392 18.8596 12.7743C18.7246 12.9094 18.5414 12.9855 18.3502 12.986H13.0037V18.3229C13.0037 18.4173 12.9851 18.5109 12.9489 18.5981C12.9127 18.6854 12.8596 18.7646 12.7928 18.8314C12.7259 18.8982 12.6465 18.9512 12.5591 18.9873C12.4717 19.0234 12.3781 19.042 12.2835 19.042H9.12237C8.93193 19.0412 8.74958 18.965 8.61522 18.8303C8.48087 18.6955 8.40544 18.5131 8.40544 18.3229V12.986H3.05562C2.86446 12.9855 2.68127 12.9094 2.54624 12.7743C2.41122 12.6392 2.33539 12.4561 2.33539 12.2652V9.10878Z" fill="white"/>
<path d="M79.9999 36.5668L70.0699 32.4065V36.027C70.0165 36.0106 69.961 36.0018 69.9051 36.0007H63.2401V28.4108C63.2397 27.7506 62.9768 27.1175 62.5092 26.6507C62.0417 26.1838 61.4077 25.9214 60.7465 25.9209H55.8812C55.2201 25.9218 54.5864 26.1844 54.1189 26.6512C53.6515 27.1179 53.3885 27.7507 53.3876 28.4108V28.4437H48.0559C42.84 28.4498 37.8395 30.5215 34.1513 34.2042C30.4631 37.8869 28.3883 42.88 28.3822 48.0881V57.5145H28.3476C27.6866 57.5154 27.0528 57.778 26.5853 58.2448C26.1179 58.7115 25.8549 59.3443 25.854 60.0044V64.8015C25.8549 65.4616 26.1179 66.0945 26.5853 66.5612C27.0528 67.028 27.6866 67.2906 28.3476 67.2915H28.3756V67.3556C28.3748 68.244 28.021 69.0957 27.3919 69.7239C26.7628 70.3521 25.9098 70.7053 25.0201 70.7062H22.2183C21.3286 70.7053 20.4756 70.3521 19.8465 69.7239C19.2174 69.0957 18.8635 68.244 18.8627 67.3556H18.889C19.5501 67.3548 20.1839 67.0922 20.6513 66.6254C21.1188 66.1586 21.3818 65.5258 21.3827 64.8657V60.067C21.3818 59.4069 21.1188 58.7741 20.6513 58.3073C20.1839 57.8405 19.5501 57.5779 18.889 57.5771H18.8627V35.1252H18.889C19.5501 35.1243 20.1839 34.8617 20.6513 34.3949C21.1188 33.9282 21.3818 33.2954 21.3827 32.6353V27.7773C21.3822 27.117 21.1194 26.484 20.6518 26.0171C20.1843 25.5503 19.5503 25.2878 18.889 25.2874H2.51656C1.85535 25.2878 1.22134 25.5503 0.753794 26.0171C0.286245 26.484 0.0233858 27.117 0.0229492 27.7773V32.6353C0.0238214 33.2954 0.286821 33.9282 0.754275 34.3949C1.22173 34.8617 1.85548 35.1243 2.51656 35.1252H2.54293V57.5771H2.51656C1.85548 57.5779 1.22173 57.8405 0.754275 58.3073C0.286821 58.7741 0.0238214 59.4069 0.0229492 60.067V64.8641C0.0238214 65.5242 0.286821 66.157 0.754275 66.6237C1.22173 67.0905 1.85548 67.3531 2.51656 67.354H2.54293C2.5486 72.5627 4.62335 77.5564 8.31196 81.2396C12.0006 84.9227 17.0018 86.9943 22.2183 87H25.0201C30.2371 86.9956 35.2393 84.9248 38.929 81.2419C42.6186 77.559 44.6942 72.5649 44.7003 67.3556V67.2915H44.725C45.3863 67.291 46.0203 67.0285 46.4878 66.5617C46.9554 66.0948 47.2182 65.4618 47.2187 64.8015V60.0044C47.2182 59.3442 46.9554 58.7111 46.4878 58.2443C46.0203 57.7774 45.3863 57.515 44.725 57.5145H44.7003V48.0881C44.7016 47.1999 45.0556 46.3484 45.6846 45.7203C46.3136 45.0923 47.1664 44.7388 48.0559 44.7375H53.3876V44.7622C53.3872 44.8685 53.3944 44.9746 53.409 45.0798C53.4867 45.6799 53.7804 46.2313 54.2353 46.631C54.6902 47.0307 55.2752 47.2515 55.8812 47.2521H60.7465C61.4077 47.2517 62.0417 46.9892 62.5092 46.5224C62.9768 46.0555 63.2397 45.4224 63.2401 44.7622V37.174H69.8969C69.9528 37.1729 70.0082 37.1641 70.0617 37.1477V40.727L79.9999 36.5668ZM30.7209 48.0865C30.7262 43.4971 32.5541 39.0971 35.8038 35.8517C39.0535 32.6062 43.4597 30.7801 48.0559 30.774H53.3876V36.0073H48.0559C44.8482 36.0107 41.7728 37.2847 39.5046 39.5495C37.2363 41.8144 35.9605 44.8851 35.957 48.0881V57.5145H30.7176L30.7209 48.0865ZM22.2183 73.0381H25.0201C26.5289 73.0364 27.9754 72.4371 29.0423 71.3718C30.1092 70.3065 30.7093 68.8622 30.711 67.3556V67.2915H35.9504V67.3556C35.9474 70.2493 34.7948 73.0236 32.7456 75.0697C30.6965 77.1158 27.918 78.2667 25.0201 78.2697H22.2183C19.3201 78.2667 16.5415 77.1159 14.4921 75.0698C12.4427 73.0237 11.2897 70.2494 11.2862 67.3556H16.5256C16.5274 68.8625 17.1277 70.3071 18.195 71.3724C19.2622 72.4378 20.7092 73.0368 22.2183 73.0381ZM16.5256 57.5771H11.2862V35.1252H16.5256V57.5771ZM2.35999 32.6353V27.7773C2.35994 27.735 2.37617 27.6943 2.40531 27.6637C2.43446 27.6331 2.4743 27.6148 2.51656 27.6127H18.889C18.9328 27.6127 18.9747 27.63 19.0056 27.6609C19.0365 27.6917 19.0539 27.7336 19.0539 27.7773V32.6353C19.0517 32.6775 19.0334 32.7173 19.0028 32.7464C18.9721 32.7755 18.9314 32.7917 18.889 32.7916H2.51656C2.47568 32.7896 2.43701 32.7725 2.40807 32.7436C2.37913 32.7147 2.36199 32.6761 2.35999 32.6353ZM4.87997 35.1252H10.1194V57.5771H4.87997V35.1252ZM2.51656 65.0204C2.4743 65.0183 2.43446 65 2.40531 64.9694C2.37617 64.9388 2.35994 64.8981 2.35999 64.8559V60.067C2.36199 60.0261 2.37913 59.9875 2.40807 59.9586C2.43701 59.9297 2.47568 59.9126 2.51656 59.9106H18.889C18.9314 59.9106 18.9721 59.9268 19.0028 59.9559C19.0334 59.985 19.0517 60.0248 19.0539 60.067V64.8641C19.0539 64.9077 19.0365 64.9496 19.0056 64.9805C18.9747 65.0113 18.9328 65.0287 18.889 65.0287H2.51656V65.0204ZM42.3649 67.3556C42.3597 71.9456 40.5313 76.346 37.2809 79.5916C34.0305 82.8372 29.6235 84.6629 25.0267 84.6681H22.2248C17.6281 84.6629 13.221 82.8372 9.97061 79.5916C6.72019 76.346 4.8918 71.9456 4.88657 67.3556H10.1194C10.1229 70.5586 11.3987 73.6294 13.6669 75.8942C15.9351 78.1591 19.0105 79.433 22.2183 79.4365H25.0201C28.2278 79.433 31.3032 78.1591 33.5714 75.8942C35.8396 73.6294 37.1155 70.5586 37.119 67.3556V67.2915H42.3583L42.3649 67.3556ZM44.725 59.8481C44.7674 59.848 44.8081 59.8642 44.8388 59.8933C44.8695 59.9224 44.8877 59.9622 44.8899 60.0044V64.8015C44.8899 64.8452 44.8725 64.8871 44.8416 64.9179C44.8107 64.9488 44.7688 64.9661 44.725 64.9661H28.3476C28.3054 64.964 28.2655 64.9457 28.2364 64.9151C28.2072 64.8845 28.191 64.8438 28.1911 64.8015V60.0044C28.1931 59.9636 28.2102 59.925 28.2391 59.8961C28.2681 59.8672 28.3068 59.8501 28.3476 59.8481H44.7185H44.725ZM48.0559 42.404C46.5471 42.4057 45.1006 43.005 44.0337 44.0703C42.9668 45.1356 42.3667 46.5799 42.3649 48.0865V57.5129H37.1255V48.0881C37.1286 45.1945 38.2812 42.4202 40.3303 40.3741C42.3795 38.3279 45.1579 37.1771 48.0559 37.174H53.3876V42.4056L48.0559 42.404ZM60.9113 44.7556C60.9113 44.7993 60.8939 44.8411 60.863 44.872C60.8321 44.9029 60.7902 44.9202 60.7465 44.9202H55.8812C55.8389 44.9181 55.7991 44.8998 55.77 44.8692C55.7408 44.8386 55.7246 44.7979 55.7246 44.7556V28.4108C55.7266 28.37 55.7438 28.3314 55.7727 28.3025C55.8017 28.2736 55.8403 28.2565 55.8812 28.2545H60.7465C60.7888 28.2544 60.8295 28.2706 60.8602 28.2998C60.8909 28.3289 60.9092 28.3686 60.9113 28.4108V44.7622V44.7556ZM72.4119 35.9134L73.9677 36.5717L72.4119 37.23V35.9134Z" fill="white"/>
<path d="M10.7031 31.4323C10.7798 31.4323 10.8558 31.4172 10.9267 31.3878C10.9976 31.3584 11.062 31.3154 11.1162 31.2611C11.1704 31.2068 11.2133 31.1424 11.2426 31.0715C11.2718 31.0007 11.2867 30.9247 11.2865 30.8481V29.576C11.2865 29.4215 11.225 29.2733 11.1156 29.164C11.0062 29.0548 10.8578 28.9934 10.7031 28.9934C10.5483 28.9934 10.3999 29.0548 10.2905 29.164C10.1811 29.2733 10.1196 29.4215 10.1196 29.576V30.8481C10.1194 30.9247 10.1343 31.0007 10.1636 31.0715C10.1928 31.1424 10.2357 31.2068 10.2899 31.2611C10.3441 31.3154 10.4085 31.3584 10.4794 31.3878C10.5503 31.4172 10.6263 31.4323 10.7031 31.4323Z" fill="white"/>
<path d="M6.00562 31.4322C6.08315 31.4325 6.15995 31.4173 6.23156 31.3876C6.30317 31.358 6.36816 31.3144 6.42275 31.2594C6.47734 31.2044 6.52045 31.1392 6.54956 31.0674C6.57868 30.9957 6.59322 30.9189 6.59235 30.8414V29.5693C6.5844 29.42 6.51938 29.2793 6.41068 29.1764C6.30198 29.0735 6.15789 29.0161 6.00809 29.0161C5.85829 29.0161 5.71419 29.0735 5.6055 29.1764C5.4968 29.2793 5.43178 29.42 5.42383 29.5693V30.8414C5.4239 30.9927 5.48303 31.1379 5.58864 31.2463C5.64217 31.3035 5.70664 31.3495 5.77827 31.3814C5.84989 31.4134 5.92719 31.4306 6.00562 31.4322Z" fill="white"/>
<path d="M15.4002 31.4322C15.4794 31.4313 15.5577 31.4143 15.6302 31.3824C15.7027 31.3504 15.768 31.3041 15.8221 31.2463C15.9277 31.1379 15.9868 30.9927 15.9869 30.8414V29.5693C15.979 29.42 15.914 29.2793 15.8053 29.1764C15.6966 29.0735 15.5525 29.0161 15.4027 29.0161C15.2529 29.0161 15.1088 29.0735 15.0001 29.1764C14.8914 29.2793 14.8263 29.42 14.8184 29.5693V30.8414C14.8175 30.9184 14.8319 30.9948 14.8607 31.0663C14.8895 31.1377 14.9322 31.2027 14.9863 31.2576C15.0403 31.3125 15.1047 31.3562 15.1758 31.3862C15.2468 31.4162 15.3231 31.4318 15.4002 31.4322Z" fill="white"/>
<path d="M10.7031 63.6215C10.7797 63.6218 10.8557 63.6068 10.9266 63.5776C10.9975 63.5484 11.0619 63.5055 11.1161 63.4514C11.1703 63.3973 11.2133 63.333 11.2425 63.2622C11.2718 63.1914 11.2867 63.1155 11.2865 63.039V61.7669C11.2865 61.6124 11.225 61.4642 11.1156 61.355C11.0062 61.2457 10.8578 61.1843 10.7031 61.1843C10.5483 61.1843 10.3999 61.2457 10.2905 61.355C10.1811 61.4642 10.1196 61.6124 10.1196 61.7669V63.039C10.1194 63.1155 10.1344 63.1914 10.1636 63.2622C10.1928 63.333 10.2358 63.3973 10.29 63.4514C10.3443 63.5055 10.4087 63.5484 10.4795 63.5776C10.5504 63.6068 10.6264 63.6218 10.7031 63.6215Z" fill="white"/>
<path d="M6.00562 63.6215C6.08251 63.6219 6.15873 63.6072 6.2299 63.5781C6.30107 63.549 6.36577 63.5062 6.4203 63.452C6.47483 63.3979 6.5181 63.3335 6.54762 63.2626C6.57715 63.1917 6.59235 63.1157 6.59235 63.0389V61.7668C6.5844 61.6175 6.51938 61.4768 6.41068 61.3739C6.30198 61.271 6.15789 61.2136 6.00809 61.2136C5.85829 61.2136 5.71419 61.271 5.6055 61.3739C5.4968 61.4768 5.43178 61.6175 5.42383 61.7668V63.0389C5.42383 63.1932 5.48507 63.3411 5.59413 63.4503C5.70319 63.5595 5.85116 63.6211 6.00562 63.6215Z" fill="white"/>
<path d="M15.4001 63.6215C15.477 63.6219 15.5533 63.6072 15.6244 63.5781C15.6956 63.549 15.7603 63.5062 15.8148 63.452C15.8694 63.3979 15.9126 63.3335 15.9422 63.2626C15.9717 63.1917 15.9869 63.1157 15.9869 63.0389V61.7668C15.9789 61.6175 15.9139 61.4768 15.8052 61.3739C15.6965 61.271 15.5524 61.2136 15.4026 61.2136C15.2528 61.2136 15.1087 61.271 15 61.3739C14.8913 61.4768 14.8263 61.6175 14.8184 61.7668V63.0389C14.8184 63.1932 14.8796 63.3411 14.9887 63.4503C15.0977 63.5595 15.2457 63.6211 15.4001 63.6215Z" fill="white"/>
<path d="M36.5406 61.1843C36.3907 61.1837 36.2464 61.2409 36.1378 61.3439C36.0291 61.4469 35.9644 61.5878 35.9572 61.7373C35.9563 61.7471 35.9563 61.757 35.9572 61.7669V63.039C35.9563 63.0489 35.9563 63.0588 35.9572 63.0686C35.9611 63.2231 36.0263 63.3697 36.1385 63.4762C36.2507 63.5827 36.4007 63.6403 36.5554 63.6364C36.7102 63.6324 36.857 63.5673 36.9636 63.4553C37.0703 63.3432 37.128 63.1935 37.124 63.039V61.7669C37.124 61.6904 37.1089 61.6146 37.0796 61.544C37.0503 61.4733 37.0073 61.4091 36.9531 61.355C36.899 61.3009 36.8346 61.258 36.7639 61.2287C36.6931 61.1994 36.6172 61.1843 36.5406 61.1843Z" fill="white"/>
<path d="M31.8417 61.1843C31.7651 61.1843 31.6893 61.1994 31.6185 61.2287C31.5477 61.258 31.4834 61.3009 31.4292 61.355C31.375 61.4091 31.332 61.4733 31.3027 61.544C31.2734 61.6146 31.2583 61.6904 31.2583 61.7669V63.039C31.2662 63.1884 31.3313 63.329 31.44 63.4319C31.5487 63.5348 31.6928 63.5922 31.8426 63.5922C31.9924 63.5922 32.1365 63.5348 32.2452 63.4319C32.3539 63.329 32.4189 63.1884 32.4268 63.039V61.7669C32.4268 61.6903 32.4117 61.6144 32.3823 61.5436C32.3528 61.4728 32.3097 61.4085 32.2554 61.3544C32.201 61.3003 32.1365 61.2574 32.0655 61.2282C31.9945 61.199 31.9185 61.1841 31.8417 61.1843Z" fill="white"/>
<path d="M41.2377 61.1843C41.1611 61.1843 41.0852 61.1994 41.0145 61.2287C40.9437 61.258 40.8794 61.3009 40.8252 61.355C40.771 61.4091 40.728 61.4733 40.6987 61.544C40.6694 61.6146 40.6543 61.6904 40.6543 61.7669V63.039C40.6622 63.1884 40.7273 63.329 40.836 63.4319C40.9447 63.5348 41.0888 63.5922 41.2386 63.5922C41.3884 63.5922 41.5324 63.5348 41.6411 63.4319C41.7498 63.329 41.8149 63.1884 41.8228 63.039V61.7669C41.8228 61.6903 41.8077 61.6144 41.7782 61.5436C41.7488 61.4728 41.7057 61.4085 41.6513 61.3544C41.597 61.3003 41.5325 61.2574 41.4615 61.2282C41.3905 61.199 41.3145 61.1841 41.2377 61.1843Z" fill="white"/>
<path d="M59.0342 36.0073C59.0068 36.0047 58.9792 36.0047 58.9518 36.0073H57.6844C57.657 36.0047 57.6294 36.0047 57.602 36.0073C57.4636 36.0358 57.3402 36.1136 57.2549 36.2262C57.1696 36.3388 57.1281 36.4784 57.1382 36.6193C57.1483 36.7601 57.2092 36.8924 57.3097 36.9917C57.4101 37.0911 57.5433 37.1506 57.6844 37.1592H58.9584C59.0995 37.1506 59.2327 37.0911 59.3331 36.9917C59.4336 36.8924 59.4945 36.7601 59.5046 36.6193C59.5147 36.4784 59.4732 36.3388 59.3879 36.2262C59.3026 36.1136 59.1793 36.0358 59.0408 36.0073H59.0342Z" fill="white"/>
<path d="M59.1793 40.7368C59.1074 40.7063 59.0301 40.6906 58.9519 40.6908H57.6845C57.6052 40.6866 57.5258 40.6985 57.4512 40.7259C57.3767 40.7534 57.3085 40.7957 57.2509 40.8502C57.1932 40.9048 57.1473 40.9706 57.1159 41.0434C57.0845 41.1163 57.0684 41.1948 57.0684 41.2742C57.0684 41.3535 57.0845 41.432 57.1159 41.5049C57.1473 41.5777 57.1932 41.6435 57.2509 41.6981C57.3085 41.7527 57.3767 41.795 57.4512 41.8224C57.5258 41.8498 57.6052 41.8618 57.6845 41.8575H58.9585C59.0353 41.8575 59.1113 41.8424 59.1822 41.813C59.253 41.7837 59.3174 41.7406 59.3716 41.6863C59.4258 41.6321 59.4688 41.5676 59.498 41.4968C59.5272 41.4259 59.5422 41.35 59.5419 41.2733C59.5418 41.2176 59.5335 41.1621 59.5172 41.1088C59.4921 41.0256 59.4488 40.949 59.3903 40.8847C59.3319 40.8204 59.2598 40.7699 59.1793 40.7368Z" fill="white"/>
<path d="M58.9516 31.3088H57.6842C57.5809 31.3087 57.4795 31.3366 57.3908 31.3894C57.3034 31.4392 57.2305 31.511 57.1793 31.5976C57.1282 31.6842 57.1005 31.7826 57.0991 31.8831C57.0991 32.038 57.1608 32.1866 57.2705 32.2962C57.3802 32.4058 57.529 32.4673 57.6842 32.4673H58.9582C59.1078 32.4594 59.2486 32.3945 59.3517 32.2859C59.4548 32.1774 59.5122 32.0335 59.5122 31.8839C59.5122 31.7343 59.4548 31.5905 59.3517 31.4819C59.2486 31.3734 59.1078 31.3085 58.9582 31.3005L58.9516 31.3088Z" fill="white"/>
</svg>
